<?xml version="1.0" encoding="UTF-8"?>
<svg id="Camada_2" data-name="Camada 2" xmlns="http://www.w3.org/2000/svg" viewBox="0 0 3261.22 545.03">
  <defs>
    <style>
      .cls-1 {
        fill: #833cfc;
      }
    </style>
  </defs>
  <g id="Layer_1" data-name="Layer 1">
    <g>
      <path class="cls-1" d="M1100.66,40.24c-40.89-21.88-86.76-32.83-137.6-32.83s-100.28,11.44-142.43,34.28c-42.17,22.86-75,54.56-98.5,95.11-23.51,40.56-35.25,86.59-35.25,138.09s12.22,97.38,36.69,137.6c24.46,40.24,58.9,71.94,103.32,95.12,44.42,23.18,96.23,34.76,155.47,34.76,46.98,0,88.51-7.24,124.57-21.73,24.4-9.81,63.19-36.3,63.19-36.3l-50.25-116.17c-17.38,16.75-39.82,32.58-60.73,40.94-20.93,8.37-44.9,12.55-71.94,12.55-31.55,0-58.59-5.63-81.11-16.9-22.54-11.25-40.24-27.52-53.11-48.76-7.1-11.7-12.22-24.58-15.41-38.62h392.97c.63-6.43,1.28-13.35,1.93-20.76.63-7.39.97-14,.97-19.8,0-56.01-11.92-103.96-35.73-143.88-23.82-39.91-56.17-70.81-97.05-92.7ZM895.94,138.25c19.63-11.26,42.32-16.9,68.08-16.9s48.28,5.64,67.59,16.9c19.31,11.27,34.43,26.89,45.39,46.83,7.26,13.25,11.95,28.06,14.11,44.42h-255.38c2.5-16.19,7.27-30.84,14.35-43.94,10.94-20.28,26.22-36.05,45.87-47.32Z"/>
      <polygon class="cls-1" points="1720.07 131.26 1894.44 131.26 1894.44 536.44 2042.18 536.44 2042.18 131.26 2201.87 131.26 2201.87 14.1 1767.83 14.1 1720.07 131.26"/>
      <path class="cls-1" d="M2700.69,305.54c18.53-28.17,27.8-62.28,27.8-102.31s-9.27-73.03-27.8-101.94c-18.53-28.91-45.11-51.03-79.7-66.35-34.6-15.31-75.62-22.98-123.07-22.98h-236.5v518.96h146.79v-137.9h89.71c2.14,0,4.26-.03,6.37-.06l58.18,137.96h157.17l-73.76-173.32c22.72-13.72,41-31.07,54.81-52.06ZM2557.97,147.99c15.31,13.6,22.98,32.01,22.98,55.23s-7.67,43-22.98,56.34c-15.33,13.34-38.31,20.02-68.95,20.02h-80.81V127.61h80.81c30.64,0,53.62,6.8,68.95,20.39Z"/>
      <path class="cls-1" d="M3195.56,65.21c-43.79-37.33-105.25-56.01-184.44-56.01-41.21,0-81.76,5.31-121.67,15.93-39.92,10.62-69.29,26.5-97.61,47.09l46.1,106.49c19.31-14.8,44.59-28.05,71.31-36.74,26.71-8.69,53.91-13.04,81.6-13.04,40.56,0,70.64,9.02,90.29,27.04,19.63,18.03,29.45,43.14,29.45,75.32v.97h-118.77c-53.44,0-96.56,6.44-129.4,19.31-32.83,12.88-56.82,31.07-71.94,54.56-15.13,23.51-22.69,50.38-22.69,80.63s7.88,56.34,23.66,80.15c15.77,23.82,38.14,42.66,67.11,56.49,28.97,13.84,63.4,20.76,103.32,20.76,45.7,0,83.05-8.84,112.01-26.55,19.57-11.96,35.01-27.23,46.35-45.8v64.63h140.98V239.99c0-79.18-21.89-137.44-65.66-174.78ZM3067.61,425.4c-20.28,11.59-43.3,17.38-69.04,17.38s-46.2-5.63-61.32-16.9c-15.13-11.25-22.69-26.55-22.69-45.87,0-17.38,6.59-31.87,19.8-43.45,13.19-11.59,37.49-17.38,72.91-17.38h103.32v53.11c-8.37,23.82-22.69,41.52-42.97,53.11Z"/>
      <path class="cls-1" d="M1657.04,265.9c-17.55-11.12-36.7-20.02-57.46-26.69-20.76-6.67-41.64-12.23-62.65-16.68-21.01-4.45-40.16-8.77-57.46-12.97-17.31-4.19-31.39-9.64-42.26-16.31-10.88-6.67-16.31-15.94-16.31-27.8,0-7.9,2.71-15.32,8.16-22.24,5.43-6.92,14.33-12.6,26.69-17.05,12.35-4.45,28.66-6.67,48.93-6.67,22.73,0,46.21,3.22,70.43,9.64,24.21,6.43,48.68,16.57,73.4,30.4l44.48-108.24c-25.21-15.32-54.25-26.81-87.11-34.48-32.88-7.66-66.35-11.49-100.46-11.49-50.91,0-93.41,7.67-127.52,22.98-34.1,15.33-59.57,35.59-76.36,60.79-16.81,25.21-25.21,53.14-25.21,83.78,0,27.69,5.31,50.67,15.94,68.95,10.62,18.29,24.58,33.12,41.89,44.48,17.29,11.38,36.57,20.52,57.83,27.43,21.25,6.93,42.13,12.49,62.65,16.68,20.5,4.2,39.54,8.65,57.09,13.34,17.54,4.7,31.75,10.38,42.63,17.05,10.87,6.67,16.31,15.7,16.31,27.06,0,8.9-2.85,16.57-8.53,22.98-5.69,6.43-14.58,11.38-26.69,14.83-12.12,3.46-28.54,5.19-49.3,5.19-30.15,0-60.42-4.82-90.82-14.46-26.83-8.51-50.87-19.04-72.11-31.6l-45.17,110.98c22.52,13.16,50.48,24.27,83.91,33.31,39.29,10.62,80.44,15.94,123.44,15.94,51.4,0,94.16-7.67,128.26-22.98,34.1-15.32,59.68-35.7,76.73-61.16,17.05-25.45,25.58-53.25,25.58-83.4,0-27.18-5.44-49.79-16.31-67.84-10.88-18.04-25.09-32.62-42.63-43.74Z"/>
      <path class="cls-1" d="M500.13,32.3C456.27,10.87,405.67.15,348.36.15h-10.47l.09-.15-208.68.15L0,301.78l119.71-.09L15.31,535.47,340.05,212.75h-129.43l56.56-94.47h73.71c30.4,0,56.69,5.74,78.88,17.2,22.17,11.47,39.5,27.79,51.96,48.97,12.45,21.19,18.69,46.99,18.69,77.38s-6.24,54.95-18.69,76.63c-12.47,21.68-29.79,38.26-51.96,49.72-22.18,11.47-48.48,17.2-78.88,17.2h-108.44l-119.46,118.13h235.38c57.31,0,107.91-10.71,151.77-32.15,43.85-21.43,78.13-51.71,102.8-90.84,24.67-39.12,37.01-85.61,37.01-139.44s-12.34-99.44-37.01-138.31c-24.67-38.88-58.95-69.03-102.8-90.47Z"/>
    </g>
  </g>
</svg>